<?xml version="1.0" standalone="no"?><!DOCTYPE svg PUBLIC "-//W3C//DTD SVG 1.1//EN" "http://www.w3.org/Graphics/SVG/1.1/DTD/svg11.dtd"><svg t="1542703911963" class="icon" style="" viewBox="0 0 1024 1024" version="1.1" xmlns="http://www.w3.org/2000/svg" p-id="1822" xmlns:xlink="http://www.w3.org/1999/xlink" width="200" height="200"><defs><style type="text/css"></style></defs><path d="M868.273 185.482l-67.6 0.033c-1.13-0.11-2.19-0.345-3.39-0.345-1.21 0-2.295 0.25-3.46 0.36l-232.584 0.11 0.075-41.622c0-20.655-17.215-37.382-37.865-37.382-3.335 0-6.16 0.28-9.08 0.502-3.157-0.222-6.175-0.502-9.817-0.502-20.64 0-37.382 16.725-37.382 37.382l0.175 41.67-226.822 0.11c-2.655-0.725-5.482-1.227-8.607-1.227-3.143 0-6 0.502-8.702 1.242l-66.8 0.018c-20.637 0-34.977 8.277-34.977 28.93 0 20.64 14.322 31.98 34.977 31.98l43.35-0.015 0.315 606.028c1.68 39.655 31.632 71.34 71.747 71.34l37.397 0 0 0.33 411.291-0.255 0-0.075 37.385 0c41.235 0 70.6-33.36 70.7-74.56l-0.33-603.108 40.005-0.015c20.64 0 37.385-11.325 37.385-31.98C905.658 193.777 888.923 185.482 868.273 185.482zM765.398 787.128c0.25 49.135-9.165 67.195-42.385 72.695l-424.849 0.25c-20.765-4.45-30.865-15.145-34.995-38l-0.297-575.381 502.506-0.252 0.31 613.338L765.398 787.128zM420.206 310.744c-17.355 0-31.415 14.055-31.415 31.412l0 424.081c0 17.36 14.06 31.415 31.415 31.415 17.34 0 31.415-14.055 31.415-31.415L451.621 342.157C451.621 324.799 437.546 310.744 420.206 310.744zM608.688 310.744c-17.36 0-31.415 14.055-31.415 31.412l0 424.081c0 17.36 14.055 31.415 31.415 31.415 17.335 0 31.41-14.055 31.41-31.415L640.098 342.157C640.098 324.799 626.023 310.744 608.688 310.744z" p-id="1823" fill="#b6a27a"></path></svg>