<?xml version="1.0" standalone="no"?><!DOCTYPE svg PUBLIC "-//W3C//DTD SVG 1.1//EN" "http://www.w3.org/Graphics/SVG/1.1/DTD/svg11.dtd"><svg t="1541746125609" class="icon" style="" viewBox="0 0 1024 1024" version="1.1" xmlns="http://www.w3.org/2000/svg" p-id="2783" xmlns:xlink="http://www.w3.org/1999/xlink" width="200" height="200"><defs><style type="text/css"></style></defs><path d="M613.477694 154.180522 427.341367 154.180522c-48.809659 0-110.225427 7.063883-161.776524 48.627511-38.883589 32.67212-57.853639 77.797877-57.853639 118.447692 0 68.937069 54.259788 138.756227 150.022829 138.756227 9.073656 0 18.97005-0.883113 28.956495-1.795902-4.53734 10.627035-9.042957 19.456121-9.042957 34.498722 0 27.373441 14.432711 44.151569 27.100218 60.07626-40.649815 2.650363-116.590392 7.064906-172.585707 40.650839-53.345975 30.93557-69.576635 75.970252-69.576635 107.819634 0 65.37494 63.243393 126.363989 194.297195 126.363989 155.443281 0 237.655701-83.948971 237.655701-166.984129 0-61.019749-36.112476-91.074252-75.879178-123.744325l-32.550347-24.7548c-9.927093-7.948019-23.475667-18.544355-23.475667-38.001499 0-19.426445 13.549597-31.818683 25.302269-43.298132 37.940101-29.170366 75.909877-60.106959 75.909877-125.511575 0-67.140143-43.389206-102.492302-64.186881-119.269407l56.026014 0L613.477694 154.180522zM533.973966 695.049013c0 54.778604-46.069245 95.39772-132.817981 95.39772-96.706529 0-159.096485-45.033659-159.096485-107.789958 0-62.755276 57.852616-83.947947 77.735455-91.01183 37.940101-12.363585 86.780459-14.18814 94.910627-14.18814 9.013281 0 13.518898 0 20.765953 0.912789C504.195755 626.112967 533.973966 649.952932 533.973966 695.049013zM461.718315 410.501328c-14.493086 14.097066-38.943964 24.7548-61.506842 24.7548-77.706803 0-112.99654-98.137111-112.99654-157.300582 0-23.020296 4.50664-46.861284 19.913539-65.404616 14.46341-17.690918 39.737026-29.170366 63.24237-29.170366 75.027787 0 113.849978 98.990548 113.849978 162.599262C484.281193 361.844142 482.485291 390.161071 461.718315 410.501328zM802.140565 276.372491l0-91.651396-60.290131 0 0 91.682096-91.133603 0 0 61.080124 91.133603 0 0 89.795119 60.290131 0 0-89.824795 90.159416 0 0-61.081147L802.140565 276.372491z" p-id="2784" fill="#ffffff"></path></svg>